<svg xmlns="http://www.w3.org/2000/svg" viewBox="0 0 500 510.43"><defs><style>.cls-1{opacity:0.5;}.cls-2{fill:#fff;}</style></defs><title>concentric-form-white</title><g id="Layer_2" data-name="Layer 2"><g id="Layer_1-2" data-name="Layer 1"><g class="cls-1"><path class="cls-2" d="M262.34,0V1h0c7.34,0,14.73.32,22,1C334.1,5.25,362.72,20,369.38,45.9c6.74,25.33,19.48,49.61,40.11,76.41,6,7.75,12.7,15.87,20.62,24.87,4.53,4.89,9,9.78,13.76,15,11.17,12.18,22.72,24.77,35.38,38a123.63,123.63,0,0,1,12.64,20.22c6.76,16.25,8.78,33.84,5.69,49.54a65.11,65.11,0,0,1-26.68,41.4C454.66,323.46,436,332.1,418,340.47c-31.6,14.66-61.45,28.5-79.53,59.84l-4.26,7.24c-28.06,47.76-59.86,101.89-113.78,101.89a84.18,84.18,0,0,1-8.54-.44,245.37,245.37,0,0,1-39-7.11,242.2,242.2,0,0,1-36-12.73,235.69,235.69,0,0,1-31.59-17.09l0,0,0,0c-38.69-20.18-44.32-73.2-48.85-115.81-.44-4.11-.85-8-1.29-11.82-4-32-19.32-52.45-34.1-72.22-4.55-6.08-9.25-12.37-13.46-18.82-5.68-8.77-7.62-19.91-5.94-34.08,1.54-13,5.86-26.24,9.88-37.52a269,269,0,0,1,10.28-25.19c3.62-7.73,7.79-15.64,12.41-23.54,3.62-6.65,7.08-13.45,10.74-20.64,18.27-35.9,37.17-73,74.67-89.48C152.91,8.27,187.06,6,223.22,3.55c10.38-.7,21.11-1.42,31.94-2.45C257.55,1,260,1,262.34,1V0m0,0q-3.61,0-7.24.1C206.88,4.69,162.38,3,119.16,22,73.79,41.9,55,92.58,33.27,132.56c-4.46,7.64-8.63,15.49-12.43,23.59a268.9,268.9,0,0,0-10.32,25.28C2,205.27-6.18,234,6.68,253.9c17.63,27,42.14,48.86,47.41,90.61,5,43.67,7.77,106,50.67,128.38a235.81,235.81,0,0,0,31.72,17.16,242.29,242.29,0,0,0,36.14,12.78A245.52,245.52,0,0,0,211.78,510a84.74,84.74,0,0,0,8.64.45c57.27,0,89.83-60.4,118.9-109.62,28.52-49.42,88.22-55.73,132.17-88.75,30.31-21.41,34.74-59.88,21.3-92.14A124.3,124.3,0,0,0,480,199.46c-18-18.75-33.85-36.41-49.17-53-7.3-8.29-14.18-16.52-20.56-24.8-18.38-23.89-32.56-48.35-39.93-76.06-8.58-33.28-51.28-42.38-86-44.67q-10.91-1-22-1Z"/></g><g class="cls-1"><path class="cls-2" d="M204.57,201.46v1h.16a9.93,9.93,0,0,1,7.36,3.29,10.34,10.34,0,0,1,2.5,8,12.45,12.45,0,0,1-12,11.1h-.39a9.89,9.89,0,0,1-7.25-3.41,10.39,10.39,0,0,1-2.37-8.07,12.5,12.5,0,0,1,12-10.92v-1m0,0a13.42,13.42,0,0,0-13,11.81,11,11,0,0,0,10.58,12.59h.42a13.4,13.4,0,0,0,13-12,11,11,0,0,0-10.84-12.41Z"/><path class="cls-2" d="M208.15,189.89c.51,0,1,0,1.54,0,2.81.12,7.85.78,10,3.93.82,1.17,1.67,2.34,2.57,3.58,1,1.45,2.13,2.95,3.2,4.49.75,1.08,1.42,2.09,2,3.09a53.36,53.36,0,0,1,3.74,7,14.33,14.33,0,0,1,.69,2.41,10.05,10.05,0,0,1-2.25,9,35.16,35.16,0,0,1-5.89,4.86,34.59,34.59,0,0,0-6.77,5.77c-3.73,4.34-7.83,8.58-13.35,8.58-.28,0-.56,0-.84,0a25.15,25.15,0,0,1-4.18-.65,24.48,24.48,0,0,1-3.88-1.3,23.87,23.87,0,0,1-3.36-1.78h0c-4.12-2.34-5.75-7.48-6.88-12.67a39.3,39.3,0,0,0-2-6.41,40.23,40.23,0,0,1-1.46-4.26c-.64-2.12.24-4.95,1-6.9.31-.86.67-1.71,1.07-2.53s.8-1.58,1.28-2.38l.09-.16c2.35-4.13,4.79-8.39,8.95-10.52s8.5-2.64,13.41-3.11c.47,0,1,0,1.42,0m0-1q-.74,0-1.48,0c-4.92.46-9.52,1-13.82,3.22-4.48,2.29-7.06,6.89-9.45,11.07-.47.79-.91,1.61-1.31,2.44s-.78,1.72-1.1,2.62c-.9,2.44-1.66,5.25-1,7.53.9,3.43,2.63,6.47,3.48,10.58,1.08,5,2.73,10.72,7.37,13.34a24.78,24.78,0,0,0,3.5,1.85,25.4,25.4,0,0,0,4,1.35,26.06,26.06,0,0,0,4.35.68q.46,0,.92,0c6,0,10.34-4.54,14.11-8.93s8.91-6.49,12.64-10.6a11,11,0,0,0,2.49-9.87,15.26,15.26,0,0,0-.74-2.6,54.76,54.76,0,0,0-3.82-7.16c-.67-1.07-1.37-2.11-2.07-3.12-2-2.84-4-5.51-5.77-8.08-2.09-3-6.6-4.19-10.78-4.36q-.79,0-1.58,0Z"/><path class="cls-2" d="M211.75,177.3h0c1,0,1.93,0,2.9.1,4.49.23,12.4,1.37,15,6.5a100.84,100.84,0,0,0,8.13,12.74l1.64,2.27,1.67,2.31c2.57,3.47,5,7.23,6.78,10.11a20.7,20.7,0,0,1,1.45,3.57c1.59,5.55.27,11-3.47,14.35a51.47,51.47,0,0,1-8.76,6.19c-4.32,2.62-8.78,5.33-12,9.76-5.28,7.14-11.27,15.24-20.3,15.24-.44,0-.89,0-1.35-.06a39.77,39.77,0,0,1-6.51-1.08,39,39,0,0,1-6-2.06,38,38,0,0,1-5.24-2.8l0,0,0,0c-6.79-3.73-8.43-12.92-9.75-20.3a38.68,38.68,0,0,0-4.25-11.42c-.81-1.6-1.58-3.11-2.23-4.73-1.37-3.17-.08-7.61,1.19-11.12.49-1.37,1.06-2.73,1.68-4s1.27-2.52,2-3.79l1.06-1.92c3.35-6.09,6.82-12.38,13-15.37s12.65-3.55,19.56-4.18l2-.19c.59,0,1.19,0,1.78,0m0-1q-.92,0-1.85,0c-7.81.74-15.07,1.14-22,4.46-7.21,3.47-10.87,11.14-14.55,17.71-.74,1.25-1.42,2.53-2.05,3.85s-1.21,2.72-1.72,4.13c-1.41,3.87-2.67,8.4-1.17,11.86,2,5,5.26,9.29,6.41,15.92,1.34,7.53,3.07,17.07,10.26,21a38.83,38.83,0,0,0,5.38,2.88,39.82,39.82,0,0,0,6.18,2.11,40.64,40.64,0,0,0,6.67,1.11c.48,0,1,.06,1.43.06,9.41,0,15.64-8.26,21.1-15.64,5.3-7.35,14.19-9.77,20.61-15.81,4.36-3.86,5.29-10,3.75-15.36a21.67,21.67,0,0,0-1.55-3.79c-2.26-3.62-4.49-7-6.85-10.22l-3.3-4.57a99.17,99.17,0,0,1-8-12.61c-2.52-5.06-9.58-6.73-15.8-7q-1.47-.1-2.95-.1Z"/><path class="cls-2" d="M215.37,164.71c1.42,0,2.84.05,4.26.16,7.54.42,17.11,2.34,19.94,9.13,2.25,5.23,5.47,10.58,10.44,17.34,1.55,2.11,3.17,4.23,4.55,6,3.35,4.22,6.64,8.78,9.81,13.19a27.67,27.67,0,0,1,2.24,4.75c3,9.23-.44,16.26-4.71,19.78a68,68,0,0,1-11.83,7.75c-6.2,3.47-12.62,7.06-16.92,13.46l-.24.35c-7,10.11-14.86,21.58-27,21.58-.61,0-1.23,0-1.86-.09a54.44,54.44,0,0,1-8.83-1.51,53.48,53.48,0,0,1-8.17-2.82,52.08,52.08,0,0,1-7.13-3.82l0,0,0,0c-9-4.85-10.92-17.1-12.47-27l-.16-1c-1-6.64-3.78-11.39-6.42-16-1.08-1.88-2.11-3.66-3-5.57-2.12-4.26-.48-10.17,1.41-15.4.67-1.88,1.44-3.75,2.29-5.55s1.74-3.46,2.76-5.21c.61-1.1,1.22-2.24,1.84-3.38,4.4-8.17,8.94-16.61,17.35-20.54,8-3.74,16.39-4.46,25.28-5.22l4.46-.4c.72,0,1.45,0,2.17,0m0-1q-1.11,0-2.23,0c-10.7,1-20.61,1.27-30.1,5.71-9.93,4.64-14.67,15.38-19.64,24.34-1,1.7-1.94,3.46-2.79,5.26s-1.64,3.71-2.33,5.64c-1.91,5.29-3.67,11.56-1.36,16.19,3.13,6.58,7.9,12.12,9.34,21.25,1.61,10.11,3.4,23.42,13.14,28.68a52.9,52.9,0,0,0,7.26,3.9,54.28,54.28,0,0,0,8.32,2.87,55.25,55.25,0,0,0,9,1.54q1,.09,1.94.09c12.83,0,20.94-12,28.09-22.36,7-10.35,19.48-13.05,28.58-21,6.21-5.12,7.39-13.53,5-20.84a28.65,28.65,0,0,0-2.35-5c-3.39-4.7-6.59-9.14-9.87-13.27-1.56-2-3.07-4-4.53-6a87.78,87.78,0,0,1-10.33-17.14c-3-7.08-12.56-9.28-20.81-9.73q-2.14-.16-4.32-.16Z"/><path class="cls-2" d="M219,152.12c1.87,0,3.75.07,5.62.22,9.59.56,21.7,3.05,24.94,11.78,2.63,6.86,6.56,13.62,12.74,21.91,1.64,2.2,3.48,4.58,5.8,7.5,3.39,4.1,6.75,8.42,10.31,13l2.53,3.25a34.86,34.86,0,0,1,3,5.93c3.43,9.76,1.1,19.66-6,25.23-4.53,3.8-9.82,6.63-14.95,9.36-8.07,4.3-16.41,8.75-21.79,17.09l-.61.92c-8.57,13-18.29,27.7-33.63,27.7-.78,0-1.57,0-2.37-.11A69.1,69.1,0,0,1,193.5,294a68,68,0,0,1-10.31-3.58,66.2,66.2,0,0,1-9-4.84l0,0,0,0c-11.23-6-13.45-21.34-15.23-33.67l-.28-1.95c-1.29-8.63-5-14.62-8.56-20.4-1.36-2.2-2.65-4.29-3.81-6.51-2.89-5.38-.81-13,1.61-19.71.85-2.39,1.83-4.76,2.91-7.06s2.2-4.39,3.51-6.62c.86-1.55,1.72-3.19,2.56-4.76,5.45-10.28,11.09-20.9,21.72-25.78,9.9-4.56,20.24-5.4,31.19-6.29,2.18-.18,4.44-.36,6.7-.58.85,0,1.71,0,2.55,0m0-1q-1.3,0-2.62,0c-13.58,1.29-26.16,1.4-38.24,7-12.66,5.81-18.48,19.63-24.74,31-1.27,2.16-2.45,4.38-3.54,6.67a77.09,77.09,0,0,0-2.95,7.15c-2.42,6.72-4.67,14.72-1.55,20.52,4.25,8.15,10.53,14.95,12.27,26.59,1.87,12.7,3.74,29.77,16,36.35a67,67,0,0,0,9.15,4.92,68.73,68.73,0,0,0,10.46,3.64,69.87,69.87,0,0,0,11.31,2c.84.08,1.65.12,2.46.12,16.25,0,26.24-15.71,35.07-29.07,8.62-13.36,24.77-16.34,36.55-26.23,8.07-6.37,9.5-17.09,6.25-26.33a35.82,35.82,0,0,0-3.15-6.17c-4.51-5.78-8.69-11.24-12.89-16.32-2-2.51-3.93-5-5.76-7.46-5.25-7.05-9.69-14.08-12.6-21.67-3.38-9.1-15.53-11.82-25.82-12.42q-2.82-.22-5.68-.22Z"/><path class="cls-2" d="M222.59,139.52c2.33,0,4.67.1,7,.28,11.64.7,26.28,3.77,29.95,14.44,3,8.34,7.73,16.75,15,26.47,2,2.7,4.26,5.54,7,8.95,3.45,4.06,6.88,8.29,10.52,12.76q2.61,3.22,5.35,6.56a42.16,42.16,0,0,1,3.82,7.11c4.38,11.92,1.56,24-7.2,30.69-5.5,4.5-11.9,7.8-18.09,11-9.93,5.12-20.19,10.41-26.64,20.69l-.95,1.48c-10.19,15.86-21.74,33.85-40.27,33.85-.94,0-1.91,0-2.88-.14a83.79,83.79,0,0,1-13.47-2.37,82.49,82.49,0,0,1-12.45-4.35,80.32,80.32,0,0,1-10.89-5.86l0,0,0,0c-13.49-7.17-16-25.62-18-40.45q-.2-1.44-.39-2.83c-1.52-10.61-6.19-17.81-10.7-24.78-1.64-2.54-3.2-4.93-4.61-7.5-3.67-6.5-1.14-15.79,1.81-24a92.43,92.43,0,0,1,3.52-8.57c1.24-2.64,2.67-5.33,4.25-8,1.09-2,2.2-4.09,3.26-6.12,6.52-12.4,13.25-25.22,26.11-31.06,11.84-5.39,24.14-6.35,37.16-7.37,2.89-.23,5.88-.46,8.88-.74,1,0,2,0,2.94,0m0-1q-1.5,0-3,.05c-16.47,1.56-31.71,1.52-46.38,8.2-15.38,7-22.28,23.87-29.83,37.6-1.53,2.62-3,5.31-4.28,8.08a93,93,0,0,0-3.56,8.66c-2.93,8.15-5.67,17.88-1.74,24.85,5.36,9.72,13.17,17.77,15.2,31.92,2.13,15.28,4.07,36.13,18.92,44a81,81,0,0,0,11,5.94,83.18,83.18,0,0,0,12.6,4.4,84.49,84.49,0,0,0,13.63,2.4c1,.1,2,.14,3,.14,19.67,0,31.54-19.43,42.06-35.78,10.28-16.36,30.06-19.62,44.52-31.44,9.92-7.62,11.6-20.66,7.51-31.81a43.09,43.09,0,0,0-4-7.36c-5.63-6.86-10.78-13.33-15.92-19.37-2.44-3-4.78-5.95-7-8.9-6.35-8.45-11.6-16.93-14.88-26.2-3.82-11.11-18.51-14.37-30.83-15.11q-3.5-.29-7-.29Z"/><path class="cls-2" d="M226.2,126.93c2.78,0,5.58.12,8.35.35,13.69.84,30.87,4.49,35,17.11,3.3,9.9,8.8,19.75,17.31,31,2.37,3.14,5.07,6.54,8.27,10.4,3.53,4.07,7,8.28,10.77,12.72,2.62,3.13,5.32,6.36,8.13,9.65a49.5,49.5,0,0,1,4.62,8.3c5.33,14.08,2,28.27-8.45,36.16-6.47,5.19-14,9-21.24,12.63-11.78,5.93-24,12.07-31.47,24.27l-1.27,2c-11.81,18.75-25.19,40-46.93,40-1.11,0-2.25-.06-3.39-.17a98.47,98.47,0,0,1-15.79-2.8,97,97,0,0,1-14.59-5.11,94.45,94.45,0,0,1-12.77-6.88l0,0,0,0c-15.77-8.35-18.56-29.92-20.8-47.26q-.24-1.88-.48-3.68c-1.75-12.57-7.39-21-12.84-29.13-1.93-2.88-3.74-5.59-5.41-8.5-4.45-7.63-1.48-18.6,2-28.34a108.54,108.54,0,0,1,4.14-10.08c1.46-3.1,3.13-6.27,5-9.44,1.33-2.42,2.6-4.87,4-7.46,7.58-14.53,15.42-29.55,30.51-36.35,13.78-6.22,28.05-7.3,43.16-8.45,3.58-.27,7.29-.55,11-.91,1.11,0,2.22-.05,3.32-.05m0-1q-1.69,0-3.39.06c-19.36,1.84-37.25,1.65-54.53,9.45-18.11,8.16-26.09,28.12-34.93,44.23-1.8,3.07-3.48,6.23-5,9.49a109.07,109.07,0,0,0-4.18,10.17c-3.43,9.57-6.67,21-1.93,29.17,6.48,11.29,15.8,20.6,18.12,37.26,2.39,17.86,4.41,42.48,21.8,51.69a95.11,95.11,0,0,0,12.91,7,97.65,97.65,0,0,0,14.74,5.16,99.13,99.13,0,0,0,16,2.83q1.78.17,3.49.17c23.09,0,36.84-23.16,49-42.49,11.93-19.37,35.34-22.9,52.49-36.65,11.78-8.88,13.7-24.22,8.76-37.3a50.39,50.39,0,0,0-4.76-8.55c-6.75-7.94-12.88-15.43-18.94-22.43-2.88-3.47-5.64-6.91-8.23-10.35-7.44-9.86-13.5-19.79-17.16-30.74-4.25-13.13-21.49-16.92-35.85-17.8q-4.17-.35-8.41-.35Z"/><path class="cls-2" d="M229.82,114.34c3.24,0,6.5.14,9.71.41,15.74,1,35.46,5.21,40,19.79,3.65,11.45,9.88,22.75,19.59,35.57,2.73,3.61,5.84,7.48,9.51,11.85,3.62,4.12,7.22,8.33,11,12.8,3.49,4.08,7.1,8.3,10.89,12.64a56.86,56.86,0,0,1,5.42,9.49c6.28,16.24,2.48,32.58-9.7,41.64-7.45,5.89-16.06,10.16-24.4,14.28-13.62,6.75-27.71,13.72-36.29,27.84L264,303.18c-13.43,21.65-28.65,46.19-53.6,46.19-1.28,0-2.59-.07-3.91-.2a113.15,113.15,0,0,1-18.11-3.24,111.52,111.52,0,0,1-16.73-5.87,108.57,108.57,0,0,1-14.65-7.9l0,0,0,0c-18.05-9.53-21.13-34.24-23.59-54.09q-.29-2.31-.57-4.52c-2-14.52-8.59-24.15-15-33.46-2.21-3.22-4.29-6.26-6.21-9.51-5.22-8.76-1.82-21.42,2.21-32.66a124.59,124.59,0,0,1,4.75-11.59c1.68-3.56,3.6-7.2,5.73-10.85,1.56-2.85,3.06-5.73,4.64-8.79,8.65-16.66,17.59-33.89,34.91-41.65,15.73-7.06,32-8.26,49.18-9.54,4.27-.32,8.69-.64,13.14-1.07,1.24,0,2.48-.06,3.71-.06m0-1q-1.88,0-3.77.06c-22.24,2.11-42.8,1.78-62.67,10.69-20.83,9.34-29.89,32.37-40,50.87-2.07,3.53-4,7.16-5.76,10.9a125.06,125.06,0,0,0-4.79,11.68c-3.94,11-7.68,24.19-2.12,33.5,7.59,12.87,18.43,23.42,21.05,42.6,2.65,20.44,4.75,48.83,24.69,59.36a109.17,109.17,0,0,0,14.79,8,112.11,112.11,0,0,0,16.88,5.92,113.76,113.76,0,0,0,18.28,3.26c1.36.13,2.69.2,4,.2,26.5,0,42.14-26.88,56-49.21C280,278.78,307,275,326.85,259.3c13.63-10.13,15.81-27.79,10-42.78a57.73,57.73,0,0,0-5.56-9.74c-7.88-9-15-17.53-22-25.48-3.32-4-6.49-7.87-9.46-11.79-8.53-11.26-15.41-22.64-19.44-35.27-4.68-15.14-24.47-19.46-40.86-20.48q-4.84-.41-9.77-.41Z"/><path class="cls-2" d="M233.43,101.75c3.69,0,7.41.16,11.07.47,11.12.7,20.41,2.56,27.61,5.51,9.31,3.83,15.16,9.53,17.37,17,4,13,10.95,25.74,21.87,40.11,3.09,4.07,6.6,8.42,10.74,13.3,3.71,4.18,7.4,8.43,11.32,12.94,4.36,5,8.86,10.2,13.63,15.56a64.23,64.23,0,0,1,6.22,10.68,46.27,46.27,0,0,1,2.61,25.64,34.62,34.62,0,0,1-13.57,21.47c-8.42,6.59-18.15,11.34-27.56,15.93-15.47,7.56-31.47,15.37-41.1,31.4l-1.89,3.08c-15.05,24.54-32.11,52.36-60.27,52.36-1.45,0-2.94-.07-4.42-.22a127.84,127.84,0,0,1-20.44-3.67,126,126,0,0,1-18.87-6.63,122.67,122.67,0,0,1-16.54-8.92l0,0,0,0c-20.34-10.71-23.7-38.55-26.4-60.93q-.33-2.73-.66-5.35c-2.21-16.47-9.78-27.3-17.1-37.78-2.49-3.57-4.84-6.93-7-10.54-6-9.89-2.16-24.24,2.4-37a140.56,140.56,0,0,1,5.37-13.1c1.89-4,4.07-8.14,6.47-12.26,1.79-3.27,3.51-6.6,5.33-10.11,9.72-18.79,19.76-38.23,39.32-47,17.69-7.9,35.92-9.22,55.22-10.63,5-.36,10.08-.73,15.25-1.22,1.36,0,2.74-.06,4.09-.06m0-1q-2.07,0-4.16.06c-25.13,2.39-48.35,1.9-70.81,11.94-23.56,10.51-33.7,36.61-45.12,57.5-2.33,4-4.51,8.09-6.5,12.31a141,141,0,0,0-5.41,13.2c-4.45,12.43-8.68,27.35-2.31,37.83,8.71,14.44,21.07,26.25,24,47.93,2.91,23,5.08,55.19,27.58,67a123.23,123.23,0,0,0,16.67,9,126.57,126.57,0,0,0,19,6.68,128.4,128.4,0,0,0,20.6,3.69q2.31.23,4.52.23c29.92,0,47.44-30.61,63-55.92,15.25-25.38,45.92-29.47,68.42-47.07,15.48-11.38,17.91-31.36,11.27-48.26A65.09,65.09,0,0,0,347.83,206c-9-10.11-17.07-19.63-25-28.53-3.76-4.44-7.35-8.83-10.7-13.24-9.63-12.66-17.31-25.5-21.71-39.8-5.11-17.16-27.45-22-45.87-23.17q-5.52-.47-11.14-.47Z"/><path class="cls-2" d="M237,89.15c4.15,0,8.33.18,12.44.53,28.87,1.84,45.69,10.3,50,25.15,4.34,14.54,12,28.73,24.15,44.65,3.45,4.53,7.37,9.35,12,14.74,3.81,4.25,7.6,8.56,11.61,13.12,5.22,5.94,10.62,12.07,16.36,18.43a71.65,71.65,0,0,1,7,11.87,51.35,51.35,0,0,1,3,28.63,38.42,38.42,0,0,1-15.2,24c-9.4,7.29-20.24,12.52-30.72,17.59-17.31,8.36-35.22,17-45.91,35l-2.19,3.6c-16.68,27.44-35.58,58.55-67,58.55-1.62,0-3.28-.08-4.94-.25a142.54,142.54,0,0,1-22.76-4.1,140.56,140.56,0,0,1-21-7.39,136.81,136.81,0,0,1-18.42-9.95l0,0,0,0c-22.63-11.89-26.27-42.88-29.2-67.78-.25-2.1-.49-4.16-.74-6.17-2.44-18.42-11-30.45-19.23-42.09-2.65-3.74-5.39-7.61-7.82-11.56-6.79-11-2.5-27.06,2.59-41.31a156.67,156.67,0,0,1,6-14.61c2.11-4.49,4.53-9.08,7.22-13.67,2-3.7,4-7.46,6-11.44C121,133.65,132.16,112,154,102.32c19.64-8.74,39.86-10.19,61.26-11.72,5.64-.4,11.47-.82,17.35-1.38,1.49,0,3-.07,4.48-.07m0-1q-2.26,0-4.54.07c-28,2.66-53.89,2-79,13.18-26.29,11.68-37.5,40.86-50.21,64.13-2.6,4.44-5,9-7.24,13.72a157,157,0,0,0-6,14.71c-5,13.85-9.68,30.51-2.5,42.16,9.82,16,23.7,29.08,26.91,53.27,3.18,25.6,5.42,61.54,30.46,74.7a137.32,137.32,0,0,0,18.55,10,141,141,0,0,0,21.16,7.45,143,143,0,0,0,22.92,4.13q2.57.26,5,.26c33.34,0,52.74-34.33,70-62.63C299.51,294.92,333.81,290.55,359,271c17.34-12.64,20-34.92,12.52-53.75a72.48,72.48,0,0,0-7.17-12.12c-10.12-11.19-19.17-21.72-28-31.59-4.2-4.92-8.2-9.79-11.93-14.68-10.72-14.07-19.22-28.35-24-44.33C294.88,95.37,270,90,249.54,88.69q-6.19-.53-12.5-.53Z"/><path class="cls-2" d="M240.66,76.56c4.61,0,9.24.2,13.8.59,31.86,2,50.36,11.41,55,27.83,4.69,16.08,13.09,31.72,26.43,49.19,3.81,5,8.13,10.28,13.21,16.19,3.9,4.33,7.79,8.7,11.91,13.34,6.08,6.84,12.36,13.92,19.09,21.27A79,79,0,0,1,387.92,218a56.43,56.43,0,0,1,3.38,31.62,42.23,42.23,0,0,1-16.84,26.45c-10.37,8-22.33,13.71-33.89,19.25-20,9.59-39,18.66-50.72,38.52L287.36,338c-18.3,30.34-39,64.74-73.64,64.74-1.79,0-3.62-.09-5.45-.28a157.22,157.22,0,0,1-25.08-4.53A155.07,155.07,0,0,1,160,389.76a150.93,150.93,0,0,1-20.3-11l0,0,0,0c-24.92-13.07-28.85-47.2-32-74.63-.27-2.39-.54-4.72-.82-7-2.67-20.36-12.17-33.6-21.35-46.4-2.92-4.07-5.94-8.29-8.63-12.6C69.29,226,74,208.25,79.65,192.5a172.74,172.74,0,0,1,6.6-16.12c2.32-4.95,5-10,8-15.08,2.25-4.12,4.4-8.31,6.69-12.75C112.74,125.48,125,101.63,149,91c21.6-9.58,43.8-11.15,67.31-12.81,6.32-.45,12.85-.91,19.44-1.53,1.62,0,3.26-.07,4.87-.07m0-1q-2.45,0-4.93.07c-30.9,2.94-59.44,2.16-87.09,14.43-29,12.86-41.31,45.1-55.31,70.76-2.86,4.9-5.54,9.94-8,15.13a173,173,0,0,0-6.64,16.22C73.25,207.45,68,225.84,76,238.67c10.94,17.58,26.34,31.9,29.84,58.6,3.44,28.18,5.75,67.89,33.35,82.37a151.38,151.38,0,0,0,20.43,11,155.5,155.5,0,0,0,23.3,8.21,157.68,157.68,0,0,0,25.24,4.56,55.32,55.32,0,0,0,5.55.28c36.76,0,58-38.05,77-69.34,18.57-31.39,56.49-36,84.36-57.49,19.19-13.89,22.12-38.49,13.78-59.23a79.86,79.86,0,0,0-8-13.32c-11.24-12.27-21.27-23.82-31-34.64-4.65-5.4-9.06-10.75-13.16-16.13-11.82-15.47-21.13-31.21-26.27-48.87-6-21.19-33.41-27.1-55.9-28.55q-6.87-.59-13.86-.6Z"/><path class="cls-2" d="M244.27,63v1h0c5.06,0,10.15.22,15.16.66,34.85,2.25,55,12.51,60,30.51,5,17.63,14.15,34.7,28.71,53.73,4.17,5.45,8.89,11.22,14.45,17.64,4,4.41,8,8.87,12.21,13.58,6.93,7.74,14.09,15.75,21.81,24.08a86.49,86.49,0,0,1,8.63,14.27c4.6,11.36,5.94,23.64,3.76,34.59A46,46,0,0,1,390.53,282c-11.35,8.69-24.42,14.9-37.06,20.9-22,10.44-42.72,20.3-55.52,42.08l-2.79,4.64c-19.93,33.25-42.52,70.93-80.33,70.93a59.55,59.55,0,0,1-6-.31,171.91,171.91,0,0,1-27.4-5,169.59,169.59,0,0,1-25.29-8.92,165,165,0,0,1-22.18-12l0,0,0,0C106.71,380,102.5,342.76,99.11,312.8c-.3-2.66-.59-5.27-.9-7.79-2.9-22.31-13.36-36.75-23.48-50.71-3.19-4.41-6.5-9-9.43-13.63-3.85-6.13-5.14-13.89-3.95-23.74,1.11-9.14,4.28-18.81,6.93-26.22a188.72,188.72,0,0,1,7.21-17.63c2.54-5.41,5.46-11,8.7-16.49,2.48-4.54,4.85-9.17,7.36-14.07,12.92-25.2,26.29-51.27,52.57-62.89,23.56-10.43,47.75-12.12,73.36-13.9,7-.49,14.23-1,21.53-1.69,1.75-.05,3.51-.08,5.25-.08V63m0,0q-2.65,0-5.31.08c-33.79,3.21-65,2.28-95.23,15.67-31.74,14-45.11,49.35-60.41,77.4-3.13,5.35-6.06,10.86-8.73,16.54a189,189,0,0,0-7.25,17.73c-6,16.71-11.68,36.83-2.88,50.82,12.05,19.15,29,34.73,32.77,63.94,3.7,30.76,6.09,74.25,36.24,90a165.45,165.45,0,0,0,22.32,12.06,170,170,0,0,0,25.44,9,172.32,172.32,0,0,0,27.56,5,60.2,60.2,0,0,0,6.06.31c40.18,0,63.34-41.78,84-76.06,20.23-34.4,61.78-39.32,92.33-62.7,21-15.15,24.22-42.05,15-64.72a87.26,87.26,0,0,0-8.77-14.51C385,190.17,374,177.6,363.35,165.83c-5.09-5.88-9.91-11.71-14.39-17.57-12.91-16.87-23-34.07-28.55-53.4C314,71.65,284,65.21,259.5,63.62Q252,63,244.27,63Z"/><path class="cls-2" d="M247.89,50.37v1h0c5.52,0,11.07.24,16.52.72,37.84,2.46,59.71,13.62,65,33.19,5.37,19.17,15.22,37.68,31,58.27,4.53,5.91,9.65,12.15,15.68,19.08,4.11,4.5,8.19,9,12.52,13.84,7.78,8.64,15.82,17.56,24.53,26.88a93.91,93.91,0,0,1,9.43,15.46c5,12.33,6.5,25.68,4.15,37.57a49.85,49.85,0,0,1-20.12,31.43c-12.33,9.39-26.51,16.09-40.22,22.56-23.9,11.28-46.47,21.94-60.33,45.63L303,361.17c-21.56,36.15-46,77.12-87,77.12a64.48,64.48,0,0,1-6.48-.33,186.61,186.61,0,0,1-29.72-5.39,184.11,184.11,0,0,1-27.43-9.68,179.17,179.17,0,0,1-24.06-13l0,0,0,0c-29.51-15.44-34-55.86-37.62-88.35-.33-2.94-.65-5.81-1-8.6C86.46,288.64,75,273,64,257.87c-3.46-4.74-7-9.65-10.23-14.66-9.13-14.41-3.52-35.53,3.17-54.28a204.81,204.81,0,0,1,7.83-19.14c2.76-5.88,5.93-11.89,9.44-17.9,2.71-5,5.3-10,8-15.39,14-27.34,28.46-55.62,57-68.2,25.52-11.27,51.7-13.08,79.42-15,7.68-.53,15.61-1.08,23.62-1.84,1.88-.05,3.77-.08,5.64-.08v-1m0,0q-2.84,0-5.7.08c-36.67,3.49-70.53,2.41-103.38,16.92-34.46,15.21-48.92,53.59-65.5,84-3.4,5.81-6.57,11.79-9.47,18A205,205,0,0,0,56,188.59c-6.47,18.13-12.69,40-3.07,55.15C66.07,264.47,84.5,281.3,88.59,313c4,33.35,6.42,80.6,39.12,97.71a179.52,179.52,0,0,0,24.2,13.08,184.43,184.43,0,0,0,27.58,9.73A187,187,0,0,0,209.38,439a65.08,65.08,0,0,0,6.58.34c43.59,0,68.64-45.5,91-82.77,21.89-37.4,67.07-42.6,100.3-67.91,22.9-16.4,26.32-45.62,16.28-70.2a94.65,94.65,0,0,0-9.57-15.7c-13.49-14.43-25.46-28-37.08-40.75-5.53-6.36-10.77-12.67-15.63-19-14-18.27-24.94-36.92-30.82-57.93-6.84-25.22-39.36-32.2-65.92-33.92q-8.22-.72-16.59-.72Z"/><path class="cls-2" d="M251.5,37.78v1h0c6,0,12,.26,17.88.78,40.82,2.67,64.38,14.73,70,35.88,5.71,20.71,16.29,40.67,33.27,62.8,4.89,6.37,10.42,13.08,16.92,20.53,4.21,4.6,8.4,9.21,12.82,14.1,8.63,9.53,17.55,19.37,27.24,29.66a101.33,101.33,0,0,1,10.23,16.65c5.46,13.31,7.07,27.72,4.53,40.57a53.66,53.66,0,0,1-21.76,33.92c-13.31,10.09-28.6,17.28-43.39,24.22-25.82,12.13-50.21,23.58-65.13,49.18l-3.38,5.68c-23.18,39.05-49.46,83.31-93.71,83.31a69.42,69.42,0,0,1-7-.36,201.29,201.29,0,0,1-32-5.82,198.63,198.63,0,0,1-29.57-10.44,193.29,193.29,0,0,1-25.94-14l0,0,0,0c-31.8-16.62-36.58-60.2-40.42-95.21-.36-3.27-.7-6.36-1.06-9.41-3.36-26.19-15.75-43-27.73-59.32-3.74-5.08-7.6-10.33-11-15.7-4.58-7.18-6.13-16.3-4.74-27.87,1.28-10.64,4.82-21.5,8.11-30.74A220.9,220.9,0,0,1,54,166.48c3-6.34,6.39-12.83,10.18-19.31,2.93-5.39,5.74-10.88,8.71-16.7C88,101,103.53,70.5,134.3,56.95c27.48-12.12,55.65-14,85.48-16.09,8.35-.57,17-1.16,25.7-2,2-.06,4-.09,6-.09v-1m0,0q-3,0-6.09.09C205.85,41.63,169.33,40.41,133.9,56c-37.19,16.38-52.72,57.84-70.6,90.66-3.66,6.27-7.09,12.71-10.21,19.36a221,221,0,0,0-8.48,20.75c-7,19.56-13.69,43.14-3.26,59.48,14.28,22.3,34.24,40.38,38.62,74.61,4.22,35.93,6.76,87,42,105.37a193.59,193.59,0,0,0,26.08,14.1,198.89,198.89,0,0,0,29.72,10.49,201.59,201.59,0,0,0,32.2,5.85,70,70,0,0,0,7.1.37c47,0,73.94-49.23,97.94-89.48,23.54-40.41,72.36-45.88,108.27-73.12,24.75-17.65,28.43-49.18,17.54-75.69a102.06,102.06,0,0,0-10.38-16.89c-14.61-15.51-27.56-30.11-40.1-43.8-6-6.84-11.62-13.63-16.86-20.46-15.1-19.68-26.84-39.78-33.1-62.46C333.11,47.94,298,40.43,269.45,38.56q-8.89-.78-18-.78Z"/><path class="cls-2" d="M255.11,25.19v1h0c6.43,0,12.9.28,19.25.84,43.81,2.87,69.06,15.84,75,38.56,6.05,22.25,17.35,43.65,35.55,67.34,5.25,6.83,11.18,14,18.15,22,4.32,4.69,8.6,9.4,13.13,14.38,9.48,10.41,19.28,21.18,30,32.44a108.75,108.75,0,0,1,11,17.84c5.9,14.29,7.64,29.76,4.92,43.56a57.48,57.48,0,0,1-23.4,36.41c-14.28,10.8-30.69,18.47-46.56,25.88-27.75,13-54,25.22-69.93,52.74l-3.67,6.19c-24.81,42-52.93,89.51-100.4,89.51a74.31,74.31,0,0,1-7.51-.39,216,216,0,0,1-34.36-6.25A213.15,213.15,0,0,1,144.6,456a207.41,207.41,0,0,1-27.83-15l0,0,0,0c-34.1-17.81-39.16-64.53-43.23-102.07-.39-3.55-.75-6.91-1.13-10.21C68.75,300.51,55.39,282.47,42.48,265c-4-5.41-8.15-11-11.85-16.74-4.95-7.71-6.63-17.5-5.14-29.94,1.37-11.41,5.16-23.08,8.7-33a236.94,236.94,0,0,1,9.06-22.16c3.19-6.8,6.86-13.76,10.92-20.72,3.16-5.81,6.19-11.74,9.39-18C79.69,92.82,96.37,60.12,129.39,45.6c29.44-13,59.6-15,91.54-17.18,9-.61,18.36-1.25,27.78-2.14,2.13-.06,4.29-.09,6.41-.09v-1m0,0q-3.22,0-6.47.09C206.2,29.32,167,27.94,129,44.69,89.07,62.24,72.45,106.78,53.29,142c-3.93,6.72-7.6,13.64-11,20.77A237,237,0,0,0,33.24,185c-7.49,21-14.69,46.3-3.45,63.81,15.4,23.87,36.87,43.21,41.55,79.94,4.49,38.51,7.09,93.31,44.9,113a207.66,207.66,0,0,0,28,15.12,213.35,213.35,0,0,0,31.86,11.26,216.23,216.23,0,0,0,34.52,6.28,74.84,74.84,0,0,0,7.61.39c50.43,0,79.23-53,104.93-96.19,25.2-43.41,77.64-49.17,116.24-78.33,26.61-18.91,30.53-52.75,18.79-81.17A109.47,109.47,0,0,0,447,201.08c-15.73-16.59-29.65-32.21-43.12-46.85-6.41-7.32-12.48-14.6-18.09-21.91-16.19-21.08-28.75-42.63-35.38-67C342.66,36.08,305.05,28,274.43,26q-9.56-.84-19.31-.84Z"/><path class="cls-2" d="M258.73,13.59c6.89,0,13.81.3,20.61.9,46.8,3.08,73.73,17,80.06,41.25,6.4,23.79,18.42,46.63,37.83,71.88,5.6,7.29,11.94,14.94,19.38,23.42,4.42,4.79,8.8,9.59,13.45,14.67,10.32,11.3,21,23,32.67,35.21a116.2,116.2,0,0,1,11.83,19c6.33,15.27,8.21,31.8,5.3,46.55a61.29,61.29,0,0,1-25,38.9c-15.26,11.5-32.79,19.66-49.73,27.55-29.68,13.81-57.7,26.86-74.73,56.29l-4,6.72C300,440.81,270,491.64,219.31,491.64a79.27,79.27,0,0,1-8-.42,230.67,230.67,0,0,1-36.68-6.68,227.65,227.65,0,0,1-33.85-12A221.53,221.53,0,0,1,111,456.51l0,0,0,0c-36.39-19-41.74-68.86-46-108.94-.41-3.83-.8-7.45-1.21-11-3.81-30.07-18.13-49.31-32-67.92-4.28-5.75-8.7-11.69-12.65-17.78-5.31-8.24-7.13-18.71-5.54-32C15,206.62,19,194.15,22.82,183.55a253,253,0,0,1,9.67-23.68c3.41-7.26,7.33-14.7,11.67-22.13,3.39-6.23,6.63-12.59,10.06-19.33,17.2-33.76,35-68.67,70.25-84.16,31.4-13.8,63.55-16,97.6-18.28,9.7-.66,19.74-1.33,29.86-2.3,2.26-.06,4.55-.1,6.8-.1m0-1q-3.42,0-6.86.1C206.54,17,164.7,15.48,124.07,33.35,81.43,52.07,63.74,99.68,43.28,137.27c-4.19,7.18-8.12,14.56-11.69,22.18a252.94,252.94,0,0,0-9.71,23.77c-8,22.41-15.69,49.46-3.65,68.14,16.51,25.44,39.5,46,44.48,85.28,4.75,41.09,7.43,99.66,47.78,120.71a221.72,221.72,0,0,0,29.84,16.14,227.83,227.83,0,0,0,34,12,230.88,230.88,0,0,0,36.84,6.71,79.86,79.86,0,0,0,8.13.42c53.85,0,84.53-56.67,111.91-102.91,26.86-46.42,82.93-52.45,124.21-83.54,28.46-20.16,32.63-56.31,20-86.66a116.88,116.88,0,0,0-12-19.27c-16.85-17.67-31.75-34.31-46.14-49.9C410.49,142.56,404,134.81,398,127c-17.29-22.48-30.66-45.49-37.66-71.53-8.14-31.27-48.3-39.83-81-42q-10.24-.9-20.68-.91Z"/><path class="cls-2" d="M262.34,0V1h0c7.34,0,14.73.32,22,1C334.1,5.25,362.72,20,369.38,45.9c6.74,25.33,19.48,49.61,40.11,76.41,6,7.75,12.7,15.87,20.62,24.87,4.53,4.89,9,9.78,13.76,15,11.17,12.18,22.72,24.77,35.38,38a123.63,123.63,0,0,1,12.64,20.22c6.76,16.25,8.78,33.84,5.69,49.54a65.11,65.11,0,0,1-26.68,41.4C454.66,323.46,436,332.1,418,340.47c-31.6,14.66-61.45,28.5-79.53,59.84l-4.26,7.24c-28.06,47.76-59.86,101.89-113.78,101.89a84.18,84.18,0,0,1-8.54-.44,245.37,245.37,0,0,1-39-7.11,242.2,242.2,0,0,1-36-12.73,235.69,235.69,0,0,1-31.59-17.09l0,0,0,0c-38.69-20.18-44.32-73.2-48.85-115.81-.44-4.11-.85-8-1.29-11.82-4-32-19.32-52.45-34.1-72.22-4.55-6.08-9.25-12.37-13.46-18.82-5.68-8.77-7.62-19.91-5.94-34.08,1.54-13,5.86-26.24,9.88-37.52a269,269,0,0,1,10.28-25.19c3.62-7.73,7.79-15.64,12.41-23.54,3.62-6.65,7.08-13.45,10.74-20.64,18.27-35.9,37.17-73,74.67-89.48C152.91,8.27,187.06,6,223.22,3.55c10.38-.7,21.11-1.42,31.94-2.45C257.55,1,260,1,262.34,1V0m0,0q-3.61,0-7.24.1C206.88,4.69,162.38,3,119.16,22,73.79,41.9,55,92.58,33.27,132.56c-4.46,7.64-8.63,15.49-12.43,23.59a268.9,268.9,0,0,0-10.32,25.28C2,205.27-6.18,234,6.68,253.9c17.63,27,42.14,48.86,47.41,90.61,5,43.67,7.77,106,50.67,128.38a235.81,235.81,0,0,0,31.72,17.16,242.29,242.29,0,0,0,36.14,12.78A245.52,245.52,0,0,0,211.78,510a84.74,84.74,0,0,0,8.64.45c57.27,0,89.83-60.4,118.9-109.62,28.52-49.42,88.22-55.73,132.17-88.75,30.31-21.41,34.74-59.88,21.3-92.14A124.3,124.3,0,0,0,480,199.46c-18-18.75-33.85-36.41-49.17-53-7.3-8.29-14.18-16.52-20.56-24.8-18.38-23.89-32.56-48.35-39.93-76.06-8.58-33.28-51.28-42.38-86-44.67q-10.91-1-22-1Z"/></g></g></g></svg>