<?xml version="1.0" encoding="UTF-8" standalone="no"?><!DOCTYPE svg PUBLIC "-//W3C//DTD SVG 1.1//EN" "http://www.w3.org/Graphics/SVG/1.1/DTD/svg11.dtd"><svg width="100%" height="100%" viewBox="0 0 375 383" version="1.1" xmlns="http://www.w3.org/2000/svg" xmlns:xlink="http://www.w3.org/1999/xlink" xml:space="preserve" style="fill-rule:evenodd;clip-rule:evenodd;stroke-linejoin:round;stroke-miterlimit:1.41421;"><g><g><clipPath id="_clip1"><rect x="0" y="0" width="375" height="382.821"/></clipPath><g clip-path="url(#_clip1)"><path d="M153.427,151.099c-4.86,0 -9.188,3.92 -9.751,8.855c-0.575,5.024 2.955,9.269 7.936,9.444c0.106,0.004 0.212,0.005 0.318,0.005c4.907,0 9.265,-3.981 9.761,-8.998c0.502,-5.082 -3.161,-9.231 -8.128,-9.306c-0.046,0 -0.091,0 -0.136,0m0.001,0l0,0.75l0.124,0c2.167,0.033 4.126,0.91 5.518,2.47c1.434,1.607 2.099,3.741 1.875,6.011c-0.454,4.59 -4.498,8.323 -9.015,8.323c-0.097,0 -0.194,-0.001 -0.291,-0.005c-2.151,-0.075 -4.083,-0.984 -5.438,-2.558c-1.408,-1.634 -2.04,-3.783 -1.78,-6.051c0.516,-4.516 4.556,-8.19 9.006,-8.19l0.001,-0.75" style="fill:#bed7ff;fill-rule:nonzero;"/><path d="M156.112,141.667c-0.368,0 -0.737,0.009 -1.107,0.03c-3.691,0.348 -7.14,0.762 -10.362,2.412c-3.362,1.719 -5.299,5.168 -7.089,8.306c-0.352,0.593 -0.681,1.204 -0.983,1.832c-0.305,0.637 -0.582,1.293 -0.828,1.966c-0.674,1.831 -1.248,3.934 -0.734,5.646c0.676,2.575 1.973,4.851 2.611,7.937c0.812,3.714 2.049,8.037 5.526,10.007c0.826,0.525 1.703,0.992 2.627,1.391c0.961,0.414 1.972,0.754 3.029,1.012c1.064,0.261 2.153,0.431 3.262,0.51c0.232,0.018 0.46,0.026 0.686,0.026c4.496,0 7.757,-3.404 10.584,-6.698c2.732,-3.257 6.68,-4.865 9.482,-7.953c1.881,-1.956 2.391,-4.799 1.869,-7.404c-0.123,-0.656 -0.314,-1.307 -0.557,-1.947c-0.857,-1.907 -1.798,-3.708 -2.867,-5.372c-0.506,-0.801 -1.024,-1.58 -1.55,-2.341c-1.476,-2.131 -2.979,-4.13 -4.329,-6.057c-1.564,-2.287 -4.948,-3.138 -8.086,-3.269c-0.394,-0.023 -0.788,-0.034 -1.184,-0.034m0,0.75c0.379,0 0.763,0.011 1.152,0.033c2.109,0.088 5.887,0.587 7.504,2.951c0.617,0.88 1.253,1.758 1.925,2.688c0.788,1.086 1.602,2.209 2.402,3.364c0.56,0.812 1.061,1.569 1.534,2.32c0.991,1.541 1.908,3.26 2.806,5.253c0.232,0.616 0.404,1.221 0.515,1.809c0.519,2.588 -0.107,5.106 -1.689,6.752c-1.282,1.413 -2.805,2.496 -4.416,3.642c-1.768,1.257 -3.596,2.556 -5.08,4.326c-2.796,3.257 -5.873,6.437 -10.015,6.437c-0.208,0 -0.419,-0.008 -0.634,-0.024c-1.057,-0.075 -2.112,-0.24 -3.136,-0.49c-1,-0.244 -1.979,-0.571 -2.91,-0.973c-0.874,-0.377 -1.722,-0.826 -2.52,-1.335l-0.017,-0.01l-0.017,-0.01c-3.093,-1.752 -4.31,-5.608 -5.161,-9.505c-0.376,-1.818 -0.962,-3.337 -1.529,-4.806c-0.417,-1.081 -0.811,-2.102 -1.099,-3.195c-0.476,-1.589 0.183,-3.712 0.721,-5.175c0.234,-0.642 0.503,-1.28 0.8,-1.898c0.282,-0.589 0.602,-1.186 0.958,-1.785l0.067,-0.117c1.765,-3.096 3.59,-6.296 6.712,-7.892c3.054,-1.565 6.378,-1.983 10.061,-2.331c0.355,-0.02 0.714,-0.029 1.066,-0.029" style="fill:#bed7ff;fill-rule:nonzero;"/><path d="M158.816,132.225c-0.461,0 -0.925,0.01 -1.39,0.031c-5.856,0.554 -11.3,0.856 -16.469,3.346c-5.405,2.6 -8.152,8.352 -10.909,13.279c-0.552,0.937 -1.068,1.899 -1.54,2.89c-0.476,1.002 -0.908,2.037 -1.288,3.099c-1.054,2.901 -2,6.303 -0.878,8.893c1.513,3.754 3.949,6.971 4.807,11.939c1.009,5.65 2.301,12.802 7.692,15.759c1.269,0.811 2.616,1.534 4.038,2.156c1.468,0.641 3.015,1.174 4.634,1.584c1.639,0.415 3.31,0.694 5.002,0.833c0.363,0.032 0.72,0.047 1.071,0.047c7.059,0 11.733,-6.198 15.825,-11.733c3.975,-5.511 10.646,-7.327 15.459,-11.859c3.271,-2.898 3.969,-7.474 2.809,-11.518c-0.281,-0.956 -0.677,-1.907 -1.159,-2.841c-1.698,-2.717 -3.371,-5.281 -5.135,-7.662c-0.835,-1.162 -1.664,-2.3 -2.473,-3.425c-2.298,-3.183 -4.41,-6.272 -6.037,-9.456c-1.889,-3.798 -7.184,-5.049 -11.846,-5.284c-0.735,-0.052 -1.472,-0.078 -2.213,-0.078m0,0.75c0.72,0 1.447,0.025 2.174,0.077c3.369,0.17 9.304,1.03 11.217,4.877c1.701,3.328 3.936,6.558 6.096,9.553c0.405,0.563 0.816,1.13 1.23,1.702c0.411,0.569 0.827,1.143 1.25,1.73c1.93,2.606 3.73,5.42 5.084,7.586c0.473,0.922 0.84,1.824 1.091,2.678c1.193,4.161 0.202,8.28 -2.601,10.765c-1.96,1.845 -4.303,3.267 -6.569,4.642c-3.238,1.967 -6.586,3.999 -8.98,7.317c-3.96,5.357 -8.45,11.429 -15.222,11.429c-0.331,0 -0.669,-0.015 -1.01,-0.045c-1.642,-0.134 -3.284,-0.408 -4.879,-0.812c-1.551,-0.393 -3.072,-0.912 -4.518,-1.544c-1.363,-0.596 -2.687,-1.303 -3.933,-2.101l-0.022,-0.013l-0.022,-0.013c-5.095,-2.794 -6.325,-9.691 -7.313,-15.229c-0.598,-3.457 -1.915,-6.053 -3.188,-8.565c-0.607,-1.198 -1.182,-2.331 -1.671,-3.544c-1.029,-2.376 -0.063,-5.705 0.895,-8.341c0.368,-1.025 0.792,-2.045 1.261,-3.031c0.445,-0.936 0.952,-1.888 1.516,-2.845c0.265,-0.474 0.531,-0.955 0.798,-1.44c2.512,-4.564 5.111,-9.284 9.783,-11.53c4.59,-2.211 9.486,-2.659 14.669,-3.133c0.505,-0.046 1.015,-0.093 1.526,-0.142c0.446,-0.018 0.896,-0.028 1.338,-0.028" style="fill:#bed7ff;fill-rule:nonzero;"/><path d="M161.523,122.781c-0.556,0 -1.115,0.012 -1.675,0.033c-8.022,0.761 -15.461,0.952 -22.576,4.281c-7.45,3.48 -11.005,11.536 -14.731,18.253c-0.752,1.278 -1.455,2.593 -2.096,3.948c-0.647,1.368 -1.233,2.78 -1.75,4.232c-1.434,3.971 -2.751,8.671 -1.02,12.14c2.349,4.933 5.925,9.09 7.004,15.94c1.204,7.587 2.552,17.566 9.857,21.51c1.71,1.098 3.529,2.078 5.448,2.922c1.976,0.87 4.059,1.595 6.239,2.157c2.214,0.57 4.467,0.956 6.744,1.155c0.495,0.045 0.979,0.068 1.457,0.068c9.622,0 15.707,-8.991 21.064,-16.768c5.22,-7.765 14.612,-9.789 21.436,-15.767c4.661,-3.837 5.546,-10.147 3.749,-15.631c-0.438,-1.256 -1.041,-2.505 -1.761,-3.735c-2.541,-3.526 -4.944,-6.853 -7.402,-9.951c-1.167,-1.522 -2.306,-3.021 -3.398,-4.508c-3.118,-4.236 -5.839,-8.414 -7.746,-12.855c-2.213,-5.311 -9.417,-6.959 -15.606,-7.301c-1.071,-0.081 -2.15,-0.123 -3.237,-0.123m0.001,0.75c1.061,0 2.131,0.041 3.195,0.123c5.652,0.312 12.835,1.752 14.958,6.846c1.685,3.925 4.1,7.935 7.831,13.004c1.166,1.588 2.377,3.177 3.415,4.531c2.514,3.167 4.977,6.586 7.359,9.894c0.718,1.23 1.284,2.432 1.679,3.558c2.269,6.926 -0.328,12.196 -3.531,14.834c-2.672,2.341 -5.823,4.105 -8.87,5.809c-4.653,2.605 -9.464,5.299 -12.689,10.097l-0.179,0.26c-5.225,7.586 -11.147,16.183 -20.268,16.183c-0.457,0 -0.924,-0.023 -1.392,-0.065c-2.228,-0.195 -4.455,-0.577 -6.622,-1.135c-2.102,-0.542 -4.162,-1.253 -6.124,-2.116c-1.853,-0.815 -3.651,-1.78 -5.345,-2.867l-0.024,-0.015l-0.025,-0.014c-6.738,-3.637 -8.188,-12.828 -9.353,-20.212l-0.119,-0.755c-0.786,-4.983 -2.833,-8.541 -4.811,-11.981c-0.814,-1.414 -1.582,-2.748 -2.262,-4.177c-1.594,-3.193 -0.362,-7.631 1.055,-11.553c0.502,-1.409 1.081,-2.81 1.721,-4.164c0.607,-1.283 1.302,-2.591 2.074,-3.904c0.459,-0.828 0.916,-1.676 1.378,-2.534c3.297,-6.124 6.705,-12.456 13.015,-15.404c5.991,-2.803 12.293,-3.343 18.964,-3.915c1.103,-0.094 2.218,-0.19 3.343,-0.296c0.542,-0.021 1.089,-0.032 1.627,-0.032" style="fill:#bed7ff;fill-rule:nonzero;"/><path d="M164.233,113.338c-0.652,0 -1.307,0.012 -1.964,0.034c-10.186,0.968 -19.62,1.048 -28.681,5.216c-9.494,4.36 -13.86,14.721 -18.554,23.228c-0.951,1.62 -1.84,3.286 -2.652,5.005c-0.818,1.734 -1.557,3.523 -2.21,5.364c-1.814,5.042 -3.502,11.04 -1.163,15.387c3.185,6.112 7.899,11.21 9.2,19.942c1.4,9.522 2.804,22.331 12.022,27.263c2.153,1.383 4.441,2.619 6.859,3.687c2.484,1.097 5.103,2.014 7.845,2.727c2.787,0.726 5.623,1.22 8.484,1.479c0.627,0.059 1.239,0.088 1.843,0.088c12.186,0 19.682,-11.783 26.304,-21.802c6.464,-10.018 18.577,-12.251 27.413,-19.674c6.051,-4.777 7.122,-12.821 4.689,-19.744c-0.597,-1.556 -1.406,-3.104 -2.364,-4.628c-3.382,-4.338 -6.515,-8.427 -9.669,-12.241c-1.497,-1.883 -2.946,-3.742 -4.323,-5.593c-3.938,-5.287 -7.268,-10.555 -9.453,-16.254c-2.538,-6.822 -11.652,-8.868 -19.365,-9.316c-1.41,-0.112 -2.83,-0.168 -4.261,-0.168m0,0.75c1.403,0 2.816,0.055 4.217,0.167c7.19,0.417 16.273,2.287 18.708,8.836c1.973,5.142 4.919,10.212 9.552,16.433c1.23,1.654 2.609,3.437 4.347,5.623c2.541,3.073 5.063,6.318 7.734,9.753c0.626,0.805 1.257,1.619 1.898,2.441c0.966,1.539 1.731,3.041 2.271,4.445c2.574,7.322 0.828,14.743 -4.464,18.922c-3.396,2.853 -7.368,4.97 -11.209,7.018c-6.053,3.225 -12.311,6.561 -16.346,12.817l-0.458,0.692c-6.43,9.738 -13.718,20.773 -25.221,20.773c-0.583,0 -1.179,-0.029 -1.776,-0.085c-2.812,-0.255 -5.626,-0.745 -8.362,-1.458c-2.655,-0.69 -5.255,-1.594 -7.731,-2.688c-2.342,-1.033 -4.615,-2.256 -6.757,-3.631l-0.025,-0.016l-0.026,-0.015c-8.422,-4.505 -10.085,-16.009 -11.422,-25.252l-0.212,-1.459c-0.965,-6.476 -3.74,-10.964 -6.423,-15.302c-1.022,-1.653 -1.988,-3.215 -2.858,-4.885c-2.172,-4.033 -0.608,-9.734 1.209,-14.781c0.635,-1.792 1.369,-3.573 2.182,-5.295c0.769,-1.631 1.651,-3.294 2.63,-4.963c0.643,-1.165 1.293,-2.389 1.92,-3.573c4.091,-7.706 8.32,-15.676 16.29,-19.336c7.428,-3.417 15.181,-4.047 23.389,-4.716c1.637,-0.133 3.33,-0.27 5.028,-0.432c0.638,-0.022 1.282,-0.033 1.915,-0.033" style="fill:#bed7ff;fill-rule:nonzero;"/><path d="M166.942,103.893c-0.748,0 -1.499,0.013 -2.252,0.038c-12.351,1.173 -23.781,1.142 -34.788,6.15c-11.538,5.24 -16.713,17.905 -22.374,28.202c-1.151,1.962 -2.227,3.981 -3.209,6.062c-0.988,2.099 -1.882,4.267 -2.671,6.498c-2.194,6.111 -4.254,13.408 -1.306,18.634c4.021,7.291 9.874,13.329 11.397,23.943c1.597,11.457 3.055,27.096 14.186,33.015c2.596,1.668 5.355,3.161 8.27,4.452c2.993,1.324 6.146,2.433 9.45,3.299c3.363,0.881 6.78,1.483 10.225,1.801c0.758,0.074 1.5,0.109 2.229,0.109c14.75,0 23.657,-14.575 31.544,-26.835c7.707,-12.273 22.543,-14.714 33.389,-23.582c7.441,-5.718 8.701,-15.495 5.629,-23.858c-0.755,-1.856 -1.769,-3.703 -2.965,-5.521c-4.223,-5.148 -8.088,-10.001 -11.936,-14.531c-1.83,-2.244 -3.588,-4.462 -5.248,-6.676c-4.758,-6.341 -8.698,-12.698 -11.162,-19.654c-2.862,-8.333 -13.884,-10.778 -23.124,-11.332c-1.748,-0.142 -3.507,-0.214 -5.284,-0.214m0,0.75c1.744,0 3.502,0.071 5.239,0.214c8.73,0.522 19.713,2.825 22.463,10.833c2.215,6.252 5.796,12.561 11.268,19.853c1.519,2.026 3.193,4.156 5.276,6.712c2.587,3.045 5.164,6.216 7.893,9.573c1.307,1.607 2.64,3.246 4.01,4.917c1.213,1.848 2.181,3.651 2.867,5.334c3.283,8.94 1.17,17.97 -5.401,23.019c-4.123,3.372 -8.923,5.847 -13.565,8.242c-7.444,3.84 -15.142,7.811 -19.979,15.515l-0.712,1.107c-7.641,11.898 -16.302,25.384 -30.202,25.384c-0.708,0 -1.434,-0.034 -2.16,-0.105c-3.397,-0.315 -6.796,-0.914 -10.104,-1.78c-3.205,-0.84 -6.346,-1.936 -9.336,-3.26c-2.83,-1.253 -5.578,-2.732 -8.168,-4.397l-0.026,-0.017l-0.028,-0.015c-10.12,-5.381 -11.997,-19.218 -13.506,-30.336c-0.098,-0.72 -0.194,-1.428 -0.29,-2.122c-1.14,-7.955 -4.642,-13.358 -8.028,-18.584c-1.233,-1.902 -2.397,-3.699 -3.458,-5.622c-2.751,-4.876 -0.857,-11.841 1.36,-18.015c0.769,-2.176 1.658,-4.338 2.643,-6.429c0.931,-1.976 2,-3.996 3.187,-6.021c0.82,-1.491 1.647,-3.065 2.448,-4.587c4.887,-9.3 9.941,-18.914 19.58,-23.292c8.879,-4.04 18.102,-4.761 27.866,-5.526c2.168,-0.169 4.408,-0.345 6.659,-0.558c0.734,-0.024 1.475,-0.037 2.204,-0.037" style="fill:#bed7ff;fill-rule:nonzero;"/><path d="M169.652,94.448c-0.843,0 -1.69,0.015 -2.541,0.042c-14.516,1.379 -27.94,1.238 -40.894,7.083c-13.581,6.122 -19.566,21.09 -26.196,33.177c-1.35,2.304 -2.613,4.675 -3.764,7.12c-1.161,2.465 -2.208,5.01 -3.133,7.63c-2.574,7.181 -5.006,15.777 -1.448,21.881c4.857,8.471 11.85,15.449 13.592,27.945c1.793,13.394 3.307,31.861 16.352,38.766c3.038,1.955 6.269,3.705 9.681,5.218c3.5,1.552 7.19,2.854 11.054,3.871c3.939,1.036 7.938,1.746 11.967,2.125c0.89,0.087 1.761,0.129 2.616,0.129c17.314,0 27.63,-17.368 36.783,-31.87c8.95,-14.526 26.508,-17.175 39.365,-27.489c8.832,-6.659 10.278,-18.169 6.57,-27.972c-0.914,-2.156 -2.133,-4.302 -3.568,-6.414c-5.065,-5.958 -9.661,-11.573 -14.203,-16.821c-2.16,-2.605 -4.229,-5.182 -6.172,-7.76c-5.579,-7.393 -10.128,-14.84 -12.87,-23.053c-3.187,-9.844 -16.119,-12.687 -26.884,-13.347c-2.085,-0.174 -4.186,-0.261 -6.307,-0.261m0,0.75c2.087,0 4.188,0.087 6.261,0.26c10.269,0.629 23.153,3.365 26.219,12.836c2.478,7.422 6.603,14.816 12.982,23.267c1.775,2.355 3.801,4.902 6.204,7.8c2.645,3.055 5.283,6.205 8.076,9.54c1.963,2.345 3.993,4.769 6.096,7.244c1.462,2.156 2.631,4.259 3.465,6.225c3.994,10.561 1.514,21.201 -6.339,27.121c-4.853,3.893 -10.482,6.729 -15.928,9.474c-8.833,4.45 -17.965,9.052 -23.602,18.2l-0.952,1.513c-8.857,14.066 -18.894,30.007 -35.196,30.007c-0.834,0 -1.69,-0.042 -2.546,-0.127c-3.982,-0.374 -7.966,-1.082 -11.845,-2.103c-3.756,-0.988 -7.437,-2.277 -10.942,-3.831c-3.319,-1.472 -6.542,-3.208 -9.579,-5.162l-0.027,-0.017l-0.028,-0.015c-11.828,-6.262 -13.918,-22.443 -15.599,-35.445c-0.121,-0.939 -0.24,-1.86 -0.361,-2.762c-1.314,-9.425 -5.541,-15.738 -9.629,-21.845c-1.445,-2.157 -2.809,-4.195 -4.058,-6.374c-3.335,-5.723 -1.11,-13.953 1.508,-21.254c0.902,-2.559 1.946,-5.103 3.103,-7.561c1.094,-2.324 2.35,-4.7 3.744,-7.079c0.995,-1.815 1.953,-3.65 2.967,-5.592c5.686,-10.896 11.566,-22.162 22.88,-27.261c10.337,-4.665 21.039,-5.478 32.369,-6.338c2.689,-0.204 5.468,-0.415 8.264,-0.68c0.831,-0.027 1.668,-0.041 2.493,-0.041l0,0" style="fill:#bed7ff;fill-rule:nonzero;"/><path d="M172.362,85.004c-0.939,0 -1.883,0.015 -2.829,0.045c-16.681,1.585 -32.101,1.333 -47.001,8.017c-15.626,7.002 -22.42,24.275 -30.017,38.151c-1.55,2.646 -3,5.369 -4.321,8.178c-1.331,2.829 -2.534,5.754 -3.593,8.763c-2.955,8.251 -5.758,18.145 -1.592,25.128c5.693,9.649 13.825,17.568 15.789,31.947c1.989,15.329 3.559,36.625 18.517,44.518c3.48,2.24 7.181,4.247 11.092,5.983c4.008,1.779 8.232,3.273 12.66,4.441c4.512,1.193 9.093,2.01 13.706,2.448c1.022,0.102 2.021,0.15 3.003,0.15c19.877,0 31.605,-20.16 42.022,-36.903c10.194,-16.782 30.474,-19.638 45.342,-31.398c10.222,-7.598 11.855,-20.842 7.51,-32.085c-1.072,-2.455 -2.497,-4.899 -4.17,-7.307c-5.907,-6.769 -11.233,-13.146 -16.47,-19.11c-2.492,-2.966 -4.87,-5.903 -7.097,-8.844c-6.4,-8.445 -11.557,-16.982 -14.579,-26.452c-3.51,-11.357 -18.352,-14.598 -30.642,-15.363c-2.423,-0.204 -4.864,-0.307 -7.33,-0.307m0,0.75c2.428,0 4.873,0.103 7.282,0.306c11.81,0.735 26.595,3.906 29.976,14.842c2.74,8.586 7.409,17.063 14.694,26.676c2.049,2.706 4.379,5.609 7.132,8.887c2.711,3.087 5.416,6.249 8.278,9.596c2.618,3.063 5.326,6.228 8.164,9.481c1.71,2.465 3.081,4.869 4.063,7.116c4.709,12.183 1.859,24.435 -7.276,31.226c-5.585,4.416 -12.048,7.617 -18.298,10.711c-10.217,5.059 -20.783,10.291 -27.216,20.879l-1.187,1.911c-10.072,16.236 -21.489,34.638 -40.198,34.638c-0.961,0 -1.946,-0.048 -2.932,-0.146c-4.566,-0.435 -9.137,-1.251 -13.586,-2.426c-4.307,-1.138 -8.528,-2.619 -12.547,-4.403c-3.808,-1.69 -7.506,-3.685 -10.99,-5.928l-0.028,-0.018l-0.029,-0.015c-13.539,-7.144 -15.844,-25.676 -17.695,-40.567c-0.144,-1.154 -0.284,-2.284 -0.428,-3.389c-1.488,-10.89 -6.439,-18.111 -11.228,-25.094c-1.656,-2.414 -3.22,-4.695 -4.66,-7.135c-3.918,-6.569 -1.363,-16.067 1.655,-24.495c1.036,-2.943 2.236,-5.868 3.565,-8.694c1.256,-2.67 2.699,-5.402 4.299,-8.136c1.17,-2.136 2.293,-4.3 3.483,-6.591c6.486,-12.495 13.194,-25.414 26.184,-31.235c11.8,-5.294 23.985,-6.198 36.886,-7.153c3.206,-0.238 6.519,-0.484 9.855,-0.801c0.926,-0.028 1.862,-0.043 2.782,-0.043" style="fill:#bed7ff;fill-rule:nonzero;"/><path d="M175.072,75.559c-1.036,0 -2.074,0.016 -3.118,0.048c-18.846,1.792 -36.261,1.428 -53.107,8.953c-17.67,7.881 -25.274,27.458 -33.839,43.124c-1.749,2.989 -3.387,6.063 -4.877,9.235c-1.502,3.196 -2.859,6.498 -4.054,9.896c-3.335,9.322 -6.51,20.514 -1.735,28.375c6.529,10.829 15.801,19.689 17.985,35.948c2.186,17.265 3.811,41.39 20.682,50.271c3.923,2.525 8.095,4.789 12.503,6.748c4.516,2.007 9.277,3.693 14.265,5.013c5.088,1.348 10.25,2.272 15.448,2.772c1.153,0.115 2.282,0.171 3.389,0.171c22.442,0 35.579,-22.955 47.261,-41.939c11.439,-19.035 34.44,-22.101 51.318,-35.305c11.613,-8.538 13.434,-23.516 8.451,-36.198c-1.23,-2.756 -2.861,-5.499 -4.772,-8.201c-6.749,-7.579 -12.805,-14.719 -18.738,-21.4c-2.822,-3.327 -5.511,-6.623 -8.021,-9.928c-7.22,-9.497 -12.986,-19.124 -16.286,-29.851c-3.835,-12.868 -20.587,-16.507 -34.403,-17.378c-2.759,-0.236 -5.542,-0.354 -8.352,-0.354m0,0.75c2.771,0 5.559,0.118 8.305,0.352c8.34,0.526 15.307,1.917 20.706,4.136c6.985,2.869 11.367,7.145 13.027,12.715c2.998,9.747 8.211,19.306 16.406,30.084c2.32,3.053 4.951,6.311 8.058,9.972c2.782,3.132 5.554,6.324 8.488,9.702c3.269,3.763 6.648,7.653 10.222,11.667c1.96,2.775 3.533,5.479 4.662,8.008c2.485,6.323 3.18,13.153 1.961,19.231c-1.328,6.616 -4.841,12.179 -10.176,16.102c-6.315,4.941 -13.612,8.505 -20.668,11.951c-11.602,5.667 -23.6,11.526 -30.827,23.551c-0.47,0.765 -0.942,1.536 -1.418,2.31c-11.29,18.408 -24.085,39.273 -45.204,39.273c-1.087,0 -2.203,-0.057 -3.318,-0.168c-5.15,-0.495 -10.306,-1.419 -15.327,-2.749c-4.858,-1.286 -9.619,-2.96 -14.152,-4.974c-4.297,-1.91 -8.47,-4.163 -12.402,-6.694l-0.027,-0.018l-0.03,-0.015c-15.255,-8.03 -17.772,-28.915 -19.796,-45.697c-0.165,-1.367 -0.326,-2.706 -0.491,-4.01c-1.66,-12.352 -7.336,-20.477 -12.825,-28.334c-1.868,-2.675 -3.633,-5.2 -5.263,-7.903c-4.504,-7.416 -1.618,-18.181 1.801,-27.737c1.17,-3.326 2.524,-6.632 4.026,-9.826c1.418,-3.019 3.049,-6.106 4.855,-9.195c1.343,-2.455 2.631,-4.946 3.995,-7.585c7.288,-14.095 14.823,-28.67 29.493,-35.214c13.264,-5.925 26.937,-6.918 41.413,-7.971c3.718,-0.27 7.563,-0.549 11.435,-0.917c1.022,-0.031 2.056,-0.047 3.071,-0.047" style="fill:#bed7ff;fill-rule:nonzero;"/><path d="M177.783,66.114c-1.131,0 -2.268,0.018 -3.408,0.052c-21.01,1.997 -40.42,1.523 -59.213,9.887c-19.714,8.762 -28.128,30.642 -37.661,48.098c-1.949,3.331 -3.772,6.758 -5.433,10.292c-1.673,3.562 -3.184,7.241 -4.515,11.03c-3.715,10.391 -7.261,22.882 -1.877,31.622c7.365,12.007 17.776,21.808 20.181,39.949c2.382,19.201 4.062,46.155 22.847,56.023c4.366,2.811 9.008,5.331 13.915,7.514c5.023,2.234 10.319,4.112 15.869,5.585c5.663,1.503 11.407,2.534 17.188,3.094c1.286,0.129 2.543,0.192 3.776,0.192c25.006,0 39.553,-25.748 52.501,-46.974c12.682,-21.289 38.405,-24.562 57.295,-39.212c13.003,-9.479 15.01,-26.19 9.39,-40.312c-1.387,-3.055 -3.225,-6.098 -5.374,-9.093c-7.59,-8.39 -14.378,-16.293 -21.005,-23.69c-3.154,-3.688 -6.151,-7.344 -8.946,-11.012c-8.041,-10.55 -14.416,-21.266 -17.994,-33.251c-4.16,-14.379 -22.821,-18.417 -38.162,-19.394c-3.096,-0.266 -6.219,-0.4 -9.374,-0.4m0,0.75c3.112,0 6.245,0.134 9.327,0.399c21.655,1.379 34.268,7.722 37.49,18.86c3.257,10.906 9.013,21.548 18.117,33.49c2.59,3.4 5.524,7.013 8.983,11.058c2.856,3.186 5.698,6.42 8.708,9.843c3.913,4.45 7.96,9.053 12.272,13.818c2.208,3.082 3.983,6.087 5.261,8.9c2.809,7.056 3.608,14.681 2.25,21.472c-1.478,7.395 -5.415,13.604 -11.403,17.97c-7.048,5.466 -15.179,9.393 -23.042,13.191c-12.986,6.274 -26.413,12.76 -34.433,26.223c-0.545,0.894 -1.093,1.795 -1.645,2.702c-12.508,20.582 -26.684,43.912 -50.216,43.912c-1.214,0 -2.459,-0.063 -3.703,-0.189c-5.735,-0.555 -11.478,-1.588 -17.068,-3.072c-5.409,-1.435 -10.711,-3.301 -15.758,-5.545c-4.786,-2.129 -9.433,-4.639 -13.813,-7.46l-0.028,-0.018l-0.029,-0.015c-16.973,-8.916 -19.704,-32.158 -21.899,-50.833c-0.185,-1.579 -0.367,-3.122 -0.553,-4.625c-1.832,-13.812 -8.232,-22.839 -14.421,-31.57c-1.989,-2.806 -4.046,-5.707 -5.866,-8.674c-5.09,-8.263 -1.873,-20.296 1.946,-30.979c1.304,-3.71 2.813,-7.397 4.487,-10.959c1.581,-3.366 3.398,-6.809 5.412,-10.253c1.515,-2.773 2.967,-5.592 4.505,-8.576c8.089,-15.697 16.453,-31.929 32.803,-39.196c14.731,-6.556 29.893,-7.641 45.945,-8.789c4.23,-0.303 8.604,-0.616 13.011,-1.034c1.119,-0.034 2.249,-0.051 3.36,-0.051" style="fill:#bed7ff;fill-rule:nonzero;"/><path d="M180.493,56.669c-1.228,0 -2.459,0.018 -3.696,0.056c-23.176,2.203 -44.581,1.618 -65.32,10.82c-21.758,9.643 -30.982,33.827 -41.483,53.073c-2.147,3.673 -4.158,7.452 -5.989,11.35c-1.844,3.928 -3.509,7.984 -4.976,12.163c-4.095,11.46 -8.012,25.25 -2.021,34.868c8.203,13.186 19.752,23.928 22.379,43.951c2.578,21.138 4.314,50.92 25.012,61.775c4.808,3.097 9.921,5.874 15.325,8.278c5.531,2.463 11.363,4.533 17.475,6.157c6.237,1.658 12.563,2.798 18.929,3.418c1.417,0.142 2.802,0.211 4.162,0.211c27.569,0 43.529,-28.54 57.74,-52.007c13.926,-23.542 42.371,-27.025 63.271,-43.119c14.394,-10.419 16.588,-28.864 10.332,-44.425c-1.546,-3.356 -3.589,-6.697 -5.977,-9.987c-8.431,-9.201 -15.951,-17.866 -23.272,-25.98c-3.485,-4.05 -6.792,-8.064 -9.871,-12.096c-8.861,-11.601 -15.845,-23.409 -19.702,-36.649c-4.485,-15.892 -25.055,-20.327 -41.922,-21.41c-3.433,-0.297 -6.896,-0.447 -10.396,-0.447m0,0.75c3.454,0 6.931,0.15 10.348,0.445c23.896,1.535 37.774,8.555 41.25,20.871c3.514,12.064 9.814,23.788 19.826,36.895c2.86,3.745 6.097,7.713 9.91,12.144c2.93,3.246 5.844,6.529 8.931,10.004c4.556,5.132 9.267,10.438 14.316,15.948c2.458,3.391 4.435,6.696 5.863,9.791c3.132,7.79 4.034,16.212 2.539,23.715c-1.629,8.174 -5.991,15.029 -12.632,19.836c-7.78,5.992 -16.746,10.284 -25.416,14.435c-15.03,7.196 -29.227,13.993 -38.04,28.891c-0.619,1.022 -1.241,2.054 -1.868,3.093c-13.727,22.758 -29.285,48.552 -55.23,48.552c-1.34,0 -2.715,-0.069 -4.09,-0.207c-6.318,-0.616 -12.647,-1.758 -18.808,-3.397c-5.96,-1.583 -11.802,-3.641 -17.363,-6.116c-5.275,-2.349 -10.398,-5.115 -15.225,-8.225l-0.028,-0.018l-0.029,-0.016c-18.691,-9.802 -21.636,-35.403 -24.003,-55.972c-0.205,-1.789 -0.407,-3.536 -0.614,-5.236c-2.002,-15.271 -9.127,-25.2 -16.015,-34.803c-2.193,-3.055 -4.459,-6.214 -6.47,-9.446c-5.676,-9.113 -2.128,-22.412 2.091,-34.224c1.438,-4.093 3.102,-8.162 4.948,-12.092c1.744,-3.712 3.748,-7.511 5.968,-11.31c1.687,-3.091 3.303,-6.236 5.014,-9.566c8.891,-17.3 18.084,-35.189 36.115,-43.18c16.199,-7.188 32.851,-8.364 50.482,-9.608c4.74,-0.334 9.64,-0.68 14.58,-1.15c1.215,-0.036 2.443,-0.054 3.65,-0.054" style="fill:#bed7ff;fill-rule:nonzero;"/><path d="M183.204,47.224c-1.324,0 -2.653,0.02 -3.986,0.06c-25.341,2.409 -48.741,1.713 -71.426,11.754c-23.802,10.524 -33.835,37.012 -45.305,58.047c-2.346,4.015 -4.544,8.146 -6.545,12.408c-2.015,4.293 -3.834,8.728 -5.437,13.295c-4.475,12.53 -8.763,27.619 -2.163,38.116c9.039,14.365 21.727,26.046 24.574,47.952c2.775,23.073 4.566,55.684 27.177,67.527c5.251,3.383 10.835,6.416 16.736,9.044c6.04,2.689 12.407,4.952 19.08,6.728c6.813,1.814 13.72,3.061 20.67,3.74c1.55,0.157 3.063,0.234 4.549,0.234c30.132,0 47.503,-31.335 62.979,-57.042c15.171,-25.797 46.337,-29.487 69.248,-47.027c15.784,-11.36 18.166,-31.538 11.271,-48.539c-1.704,-3.656 -3.952,-7.296 -6.578,-10.88c-9.273,-10.011 -17.523,-19.44 -25.539,-28.269c-3.816,-4.411 -7.434,-8.786 -10.795,-13.181c-9.682,-12.653 -17.275,-25.549 -21.411,-40.048c-4.809,-17.403 -27.29,-22.237 -45.681,-23.425c-3.771,-0.329 -7.574,-0.494 -11.418,-0.494m0,0l0,0.75c3.796,0 7.616,0.165 11.37,0.492c26.136,1.689 41.278,9.386 45.008,22.883c3.771,13.22 10.614,26.025 21.536,40.297c3.128,4.091 6.669,8.414 10.836,13.23c3.005,3.309 5.993,6.648 9.156,10.183c5.197,5.807 10.571,11.81 16.359,18.06c2.702,3.693 4.879,7.293 6.47,10.701c3.45,8.518 4.452,17.729 2.82,25.94c-1.779,8.953 -6.565,16.454 -13.86,21.705c-8.513,6.516 -18.313,11.174 -27.792,15.678c-16.476,7.83 -32.038,15.224 -41.642,31.557c-0.693,1.15 -1.39,2.312 -2.09,3.482c-14.947,24.935 -31.888,53.197 -60.247,53.197c-1.467,0 -2.971,-0.078 -4.475,-0.23c-6.905,-0.675 -13.819,-1.926 -20.55,-3.718c-6.511,-1.734 -12.893,-3.984 -18.968,-6.689c-5.763,-2.566 -11.361,-5.591 -16.635,-8.989l-0.03,-0.019l-0.029,-0.015c-20.41,-10.69 -23.569,-38.651 -26.107,-61.117c-0.225,-1.998 -0.446,-3.948 -0.674,-5.843c-2.174,-16.728 -10.021,-27.56 -17.611,-38.033c-2.394,-3.306 -4.872,-6.724 -7.072,-10.221c-2.889,-4.595 -3.858,-10.419 -2.962,-17.806c0.831,-6.854 3.214,-14.107 5.198,-19.663c1.57,-4.476 3.39,-8.926 5.409,-13.225c1.905,-4.059 4.096,-8.214 6.524,-12.367c1.858,-3.408 3.637,-6.879 5.522,-10.554c9.692,-18.903 19.715,-38.45 39.428,-47.166c17.667,-7.82 35.811,-9.086 55.02,-10.427c5.25,-0.366 10.677,-0.745 16.149,-1.265c1.311,-0.038 2.636,-0.058 3.939,-0.058l0,-0.75" style="fill:#bed7ff;fill-rule:nonzero;"/><path d="M185.914,37.779c-1.42,0 -2.845,0.021 -4.275,0.063c-27.506,2.616 -52.9,1.809 -77.532,12.689c-25.847,11.404 -36.689,40.196 -49.127,63.021c-2.546,4.357 -4.93,8.84 -7.101,13.465c-2.186,4.659 -4.16,9.472 -5.898,14.428c-4.854,13.601 -9.515,29.988 -2.305,41.363c9.874,15.545 23.702,28.167 26.77,51.954c2.971,25.008 4.817,60.449 29.342,73.279c5.692,3.668 11.748,6.959 18.148,9.81c6.546,2.916 13.449,5.371 20.685,7.299c7.386,1.969 14.876,3.323 22.41,4.064c1.682,0.171 3.323,0.253 4.935,0.253c32.695,0 51.478,-34.126 68.218,-62.076c16.415,-28.051 50.303,-31.949 75.225,-50.935c17.174,-12.3 19.743,-34.212 12.212,-52.652c-1.863,-3.955 -4.317,-7.894 -7.18,-11.773c-10.116,-10.821 -19.096,-21.012 -27.807,-30.559c-4.147,-4.772 -8.075,-9.506 -11.72,-14.264c-10.503,-13.706 -18.705,-27.693 -23.119,-43.448c-5.133,-18.914 -29.524,-24.147 -49.441,-25.441c-4.107,-0.359 -8.251,-0.54 -12.44,-0.54m0.001,0l0,0.75l0,0c4.138,0 8.301,0.181 12.391,0.539c28.376,1.843 44.783,10.218 48.767,24.895c4.029,14.376 11.414,28.262 23.245,43.701c3.398,4.434 7.241,9.111 11.762,14.313c3.081,3.378 6.144,6.777 9.385,10.375c5.835,6.477 11.869,13.175 18.398,20.159c2.952,4.002 5.331,7.903 7.071,11.595c3.774,9.251 4.879,19.258 3.11,28.182c-1.93,9.732 -7.141,17.88 -15.089,23.571c-9.247,7.044 -19.883,12.066 -30.168,16.924c-17.922,8.462 -34.849,16.455 -45.246,34.223c-0.766,1.278 -1.536,2.57 -2.312,3.87c-16.165,27.111 -34.489,57.841 -65.263,57.841c-1.593,0 -3.228,-0.084 -4.862,-0.25c-7.488,-0.735 -14.988,-2.095 -22.291,-4.042c-7.061,-1.881 -13.983,-4.324 -20.572,-7.259c-6.253,-2.786 -12.325,-6.068 -18.047,-9.756l-0.029,-0.018l-0.03,-0.015c-22.131,-11.579 -25.503,-41.898 -28.212,-66.261c-0.245,-2.208 -0.485,-4.361 -0.733,-6.45c-2.346,-18.186 -10.917,-29.916 -19.205,-41.262c-2.599,-3.556 -5.285,-7.233 -7.676,-10.998c-6.851,-10.809 -2.642,-26.644 2.38,-40.713c1.704,-4.86 3.679,-9.69 5.869,-14.358c2.068,-4.405 4.447,-8.916 7.081,-13.425c2.03,-3.724 3.973,-7.521 6.029,-11.54c10.496,-20.508 21.347,-41.713 42.742,-51.153c19.137,-8.453 38.773,-9.81 59.563,-11.247c5.757,-0.397 11.709,-0.809 17.712,-1.379c1.407,-0.041 2.829,-0.062 4.229,-0.062l0.001,-0.75" style="fill:#bed7ff;fill-rule:nonzero;"/><path d="M188.624,28.335c-1.516,0 -3.037,0.022 -4.564,0.065c-29.67,2.822 -57.06,1.904 -83.639,13.624c-27.89,12.284 -39.542,43.381 -52.948,67.995c-2.745,4.699 -5.316,9.535 -7.656,14.522c-2.358,5.025 -4.486,10.216 -6.36,15.562c-5.235,14.67 -10.266,32.356 -2.448,44.61c10.71,16.723 25.677,30.286 28.967,55.954c3.167,26.946 5.069,65.215 31.507,79.032c6.135,3.954 12.66,7.501 19.558,10.575c7.055,3.144 14.493,5.791 22.29,7.871c7.962,2.125 16.033,3.586 24.152,4.387c1.813,0.184 3.582,0.273 5.322,0.273c35.257,0 55.452,-36.919 73.457,-67.11c17.659,-30.305 54.268,-34.411 81.201,-54.842c18.564,-13.24 21.32,-36.886 13.152,-56.766c-2.021,-4.255 -4.681,-8.493 -7.783,-12.666c-10.957,-11.632 -20.668,-22.585 -30.073,-32.849c-4.479,-5.132 -8.715,-10.226 -12.646,-15.348c-11.322,-14.758 -20.132,-29.834 -24.826,-46.847c-5.458,-20.426 -31.758,-26.056 -53.2,-27.456c-4.445,-0.39 -8.928,-0.586 -13.463,-0.586m0.001,0l0,0.75l0.001,0c4.479,0 8.986,0.196 13.413,0.584c30.616,2 48.288,11.051 52.525,26.908c4.285,15.531 12.214,30.499 24.954,47.103c3.665,4.778 7.811,9.811 12.687,15.399c3.159,3.447 6.296,6.909 9.617,10.575c6.473,7.144 13.165,14.532 20.434,22.249c3.201,4.311 5.783,8.511 7.673,12.488c4.098,9.984 5.305,20.788 3.399,30.424c-2.08,10.512 -7.717,19.305 -16.318,25.441c-9.98,7.57 -21.452,12.958 -32.546,18.167c-19.366,9.096 -37.659,17.688 -48.846,36.888c-0.84,1.407 -1.683,2.827 -2.532,4.258c-17.386,29.29 -37.093,62.486 -70.281,62.486c-1.72,0 -3.485,-0.09 -5.249,-0.27c-8.073,-0.795 -16.158,-2.264 -24.031,-4.365c-7.613,-2.031 -15.075,-4.665 -22.179,-7.831c-6.741,-3.005 -13.287,-6.545 -19.458,-10.52l-0.028,-0.019l-0.031,-0.015c-23.852,-12.466 -27.437,-45.149 -30.318,-71.408c-0.269,-2.454 -0.523,-4.77 -0.792,-7.055c-2.517,-19.642 -11.81,-32.272 -20.798,-44.488c-2.801,-3.807 -5.699,-7.744 -8.28,-11.775c-3.437,-5.386 -4.601,-12.225 -3.558,-20.906c0.958,-7.978 3.611,-16.128 6.082,-23.053c1.838,-5.243 3.969,-10.455 6.33,-15.49c2.23,-4.753 4.797,-9.619 7.638,-14.483c2.2,-4.041 4.306,-8.163 6.536,-12.526c11.296,-22.112 22.978,-44.976 46.055,-55.141c20.606,-9.086 41.736,-10.534 64.106,-12.067c6.265,-0.429 12.743,-0.873 19.276,-1.494c1.503,-0.042 3.023,-0.064 4.518,-0.064l0.001,-0.75" style="fill:#bed7ff;fill-rule:nonzero;"/><path d="M191.335,18.89c-1.611,0 -3.23,0.023 -4.853,0.069c-31.836,3.028 -61.221,1.999 -89.745,14.558c-29.935,13.165 -42.396,46.565 -56.77,72.968c-2.945,5.043 -5.703,10.23 -8.213,15.581c-2.529,5.39 -4.811,10.96 -6.821,16.694c-5.614,15.74 -11.018,34.725 -2.591,47.857c11.547,17.902 27.653,32.406 31.163,59.957c3.364,28.88 5.321,69.979 33.672,84.783c6.578,4.24 13.575,8.043 20.97,11.341c7.563,3.371 15.536,6.21 23.895,8.442c8.537,2.28 17.189,3.849 25.892,4.71c1.947,0.198 3.843,0.294 5.709,0.294c37.821,0 59.426,-39.713 78.696,-72.144c18.903,-32.56 58.233,-36.874 87.177,-58.75c19.956,-14.18 22.899,-39.559 14.093,-60.879c-2.179,-4.555 -5.044,-9.092 -8.384,-13.56c-11.799,-12.442 -22.242,-24.158 -32.342,-35.139c-4.809,-5.493 -9.356,-10.946 -13.569,-16.432c-12.144,-15.81 -21.562,-31.975 -26.535,-50.245c-5.782,-21.938 -33.991,-27.966 -56.959,-29.473c-4.782,-0.421 -9.606,-0.632 -14.485,-0.632m0.001,0l0,0.75c4.823,0 9.673,0.211 14.435,0.631c32.857,2.154 51.794,11.883 56.284,28.92c4.542,16.687 13.014,32.736 26.664,50.506c3.934,5.122 8.382,10.509 13.613,16.484c3.237,3.519 6.449,7.047 9.85,10.785c7.108,7.808 14.458,15.882 22.468,24.33c3.45,4.618 6.233,9.119 8.273,13.379c4.424,10.718 5.733,22.318 3.69,32.668c-2.231,11.292 -8.293,20.731 -17.548,27.309c-10.714,8.097 -23.021,13.85 -34.922,19.413c-20.812,9.729 -40.47,18.918 -52.449,39.552c-0.911,1.533 -1.828,3.084 -2.751,4.646c-18.606,31.466 -39.696,67.131 -75.3,67.131c-1.847,0 -3.741,-0.098 -5.635,-0.29c-8.657,-0.857 -17.329,-2.433 -25.772,-4.689c-8.164,-2.18 -16.166,-5.007 -23.784,-8.403c-7.23,-3.223 -14.252,-7.02 -20.869,-11.285l-0.029,-0.019l-0.03,-0.015c-25.574,-13.355 -29.373,-48.398 -32.424,-76.556c-0.289,-2.664 -0.562,-5.181 -0.851,-7.658c-2.688,-21.098 -12.705,-34.628 -22.392,-47.714c-3.005,-4.059 -6.112,-8.256 -8.884,-12.553c-3.711,-5.783 -4.972,-13.128 -3.856,-22.456c1.024,-8.56 3.872,-17.312 6.524,-24.748c1.973,-5.627 4.257,-11.22 6.792,-16.623c2.392,-5.1 5.145,-10.323 8.193,-15.541c2.372,-4.358 4.64,-8.804 7.043,-13.512c12.099,-23.716 24.61,-48.239 49.37,-59.129c22.077,-9.72 44.7,-11.258 68.652,-12.887c6.772,-0.46 13.774,-0.937 20.837,-1.608c1.6,-0.045 3.217,-0.068 4.807,-0.068l0.001,-0.75" style="fill:#bed7ff;fill-rule:nonzero;"/><path d="M194.045,9.445c-1.708,0 -3.422,0.024 -5.141,0.073c-34.001,3.234 -65.382,2.094 -95.853,15.492c-31.978,14.045 -45.249,49.749 -60.591,77.943c-3.144,5.384 -6.089,10.923 -8.769,16.638c-2.699,5.755 -5.136,11.703 -7.281,17.826c-5.995,16.811 -11.77,37.094 -2.735,51.105c12.383,19.082 29.629,34.525 33.36,63.957c3.56,30.818 5.573,74.745 35.837,90.536c7.02,4.526 14.487,8.586 22.38,12.106c8.071,3.599 16.581,6.63 25.501,9.014c9.112,2.434 18.346,4.111 27.633,5.032c2.075,0.213 4.106,0.316 6.095,0.316c40.389,0 63.399,-42.504 83.935,-77.179c20.147,-34.813 62.2,-39.336 93.155,-62.657c21.345,-15.121 24.475,-42.233 15.033,-64.993c-2.337,-4.854 -5.409,-9.691 -8.988,-14.453c-12.64,-13.252 -23.812,-25.732 -34.608,-37.428c-5.139,-5.854 -9.997,-11.668 -14.494,-17.516c-12.964,-16.862 -22.992,-34.118 -28.243,-53.645c-6.107,-23.449 -36.226,-29.876 -60.718,-31.488c-5.118,-0.452 -10.284,-0.679 -15.508,-0.679m0,0.75c5.165,0 10.36,0.227 15.458,0.677c35.098,2.31 55.299,12.716 60.044,30.935c4.797,17.841 13.813,34.97 28.372,53.907c4.203,5.466 8.954,11.208 14.538,17.568c3.316,3.591 6.604,7.19 10.085,10.998c7.743,8.472 15.75,17.232 24.501,26.407c3.7,4.927 6.686,9.728 8.875,14.273c4.747,11.451 6.16,23.848 3.979,34.91c-2.381,12.073 -8.868,22.157 -18.777,29.178c-11.447,8.623 -24.59,14.742 -37.301,20.659c-22.256,10.361 -43.278,20.148 -56.048,42.215c-0.986,1.664 -1.978,3.348 -2.977,5.042c-19.823,33.641 -42.291,71.769 -80.313,71.769c-1.973,0 -3.998,-0.105 -6.021,-0.312c-9.242,-0.916 -18.498,-2.602 -27.513,-5.011c-8.715,-2.328 -17.257,-5.348 -25.389,-8.975c-7.719,-3.442 -15.216,-7.496 -22.28,-12.05l-0.029,-0.019l-0.031,-0.016c-27.295,-14.242 -31.307,-51.648 -34.531,-81.704c-0.309,-2.875 -0.6,-5.59 -0.908,-8.26c-2.859,-22.554 -13.599,-36.984 -23.985,-50.938c-3.208,-4.311 -6.526,-8.768 -9.488,-13.333c-3.985,-6.179 -5.344,-14.032 -4.155,-24.007c1.09,-9.142 4.132,-18.495 6.967,-26.442c2.105,-6.012 4.545,-11.985 7.252,-17.757c2.555,-5.447 5.495,-11.025 8.75,-16.598c2.542,-4.674 4.974,-9.445 7.548,-14.497c12.902,-25.321 26.243,-51.504 52.686,-63.118c23.547,-10.353 47.664,-11.982 73.197,-13.707c7.278,-0.492 14.805,-1.001 22.398,-1.722c1.696,-0.048 3.411,-0.072 5.096,-0.072" style="fill:#bed7ff;fill-rule:nonzero;"/><path d="M196.756,0c-1.803,0 -3.615,0.025 -5.432,0.077c-36.164,3.44 -69.54,2.189 -101.958,16.426c-34.022,14.926 -48.103,52.933 -64.412,82.917c-3.344,5.726 -6.476,11.617 -9.326,17.695c-2.87,6.121 -5.461,12.447 -7.743,18.96c-6.375,17.88 -12.52,39.462 -2.876,54.351c13.219,20.262 31.604,36.645 35.556,67.959c3.756,32.753 5.824,79.51 38.001,96.288c7.463,4.812 15.401,9.128 23.792,12.871c8.579,3.827 17.624,7.05 27.105,9.585c9.687,2.591 19.503,4.376 29.375,5.357c2.207,0.226 4.366,0.336 6.481,0.336c42.952,0 67.374,-45.297 89.175,-82.214c21.39,-37.067 66.165,-41.797 99.131,-66.565c22.735,-16.06 26.053,-44.907 15.973,-69.105c-2.496,-5.155 -5.772,-10.29 -9.589,-15.346c-13.483,-14.063 -25.386,-27.305 -36.875,-39.718c-5.472,-6.216 -10.639,-12.388 -15.42,-18.601c-13.785,-17.914 -24.421,-36.26 -29.95,-57.044c-6.432,-24.96 -38.461,-31.785 -64.478,-33.503c-5.456,-0.483 -10.962,-0.726 -16.53,-0.726m0.001,0l0,0.75l0.001,0c5.506,0 11.044,0.243 16.478,0.724c37.338,2.465 58.804,13.549 63.803,32.948c5.053,18.995 14.611,37.205 30.081,57.308c4.47,5.809 9.524,11.906 15.463,18.653c3.393,3.666 6.758,7.334 10.319,11.217c8.379,9.133 17.042,18.577 26.535,28.479c3.948,5.234 7.137,10.337 9.477,15.166c5.07,12.183 6.586,25.378 4.266,37.153c-2.53,12.852 -9.442,23.583 -20.006,31.046c-12.18,9.15 -26.158,15.635 -39.678,21.905c-23.701,10.994 -46.087,21.378 -59.648,44.878c-1.058,1.792 -2.123,3.604 -3.196,5.429c-21.043,35.818 -44.895,76.416 -85.333,76.416c-2.1,0 -4.254,-0.112 -6.407,-0.333c-9.826,-0.976 -19.669,-2.77 -29.254,-5.333c-9.266,-2.478 -18.348,-5.69 -26.994,-9.546c-8.208,-3.662 -16.179,-7.974 -23.691,-12.817l-0.03,-0.019l-0.03,-0.016c-29.018,-15.132 -33.243,-54.9 -36.639,-86.854c-0.327,-3.085 -0.636,-5.998 -0.966,-8.862c-3.029,-24.009 -14.492,-39.338 -25.578,-54.161c-3.411,-4.563 -6.939,-9.281 -10.092,-14.112c-4.258,-6.576 -5.715,-14.936 -4.453,-25.558c1.156,-9.725 4.393,-19.679 7.408,-28.138c2.24,-6.394 4.835,-12.749 7.714,-18.889c2.717,-5.794 5.844,-11.727 9.306,-17.655c2.714,-4.99 5.308,-10.087 8.054,-15.483c13.704,-26.925 27.876,-54.768 56.001,-67.107c25.018,-10.986 50.63,-12.707 77.745,-14.528c7.785,-0.523 15.835,-1.063 23.958,-1.835c1.791,-0.05 3.603,-0.076 5.385,-0.076l0.001,-0.75" style="fill:#bed7ff;fill-rule:nonzero;"/></g></g></g></svg>